<svg width="1312" height="900" viewBox="0 0 1312 900" fill="none" xmlns="http://www.w3.org/2000/svg">
<g opacity="0.5">
<path d="M1297 415.139C1297 798.348 1010.01 1109 656 1109C301.985 1109 15 798.348 15 415.139" stroke="#28357A" stroke-width="30" stroke-linecap="round"/>
<path d="M1297 415.139C1297 798.348 1010.01 1109 656 1109C301.985 1109 15 798.348 15 415.139" stroke="url(#paint0_linear)" stroke-width="30" stroke-linecap="round"/>
<path d="M1097.59 -11.3387C1192.09 102.37 1249.59 252.775 1249.59 417.705C1249.59 772.287 983.83 1059.73 656 1059.73C328.17 1059.73 62.4113 772.287 62.4113 417.705C62.4113 278.561 103.336 149.755 172.877 44.6013" stroke="#28357A" stroke-width="30" stroke-linecap="round"/>
<path d="M97.0318 201.13C74.62 268.792 62.4113 341.706 62.4113 417.705C62.4113 772.287 328.17 1059.73 656 1059.73C983.83 1059.73 1249.59 772.287 1249.59 417.705C1249.59 285.501 1212.64 162.63 1149.31 60.5108" stroke="#218D8C" stroke-width="30" stroke-linecap="round"/>
<path d="M97.0318 201.13C74.62 268.792 62.4113 341.706 62.4113 417.705C62.4113 772.287 328.17 1059.73 656 1059.73C983.83 1059.73 1249.59 772.287 1249.59 417.705C1249.59 285.501 1212.64 162.63 1149.31 60.5108" stroke="url(#paint1_linear)" stroke-width="30" stroke-linecap="round"/>
<path d="M1201.23 417.192C1201.23 743.146 957.122 1007.38 656 1007.38C354.878 1007.38 110.771 743.146 110.771 417.192C110.771 386.122 112.989 355.613 117.262 325.841C157.825 43.2649 383.581 -173 656 -173C903.955 -173 1113.25 6.16664 1179.43 251.425C1193.62 304.014 1201.23 359.641 1201.23 417.192Z" stroke="#52C6C5" stroke-width="30" stroke-linecap="round"/>
<path d="M1201.23 417.192C1201.23 743.146 957.122 1007.38 656 1007.38C354.878 1007.38 110.771 743.146 110.771 417.192C110.771 386.122 112.989 355.613 117.262 325.841C157.825 43.2649 383.581 -173 656 -173C903.955 -173 1113.25 6.16664 1179.43 251.425C1193.62 304.014 1201.23 359.641 1201.23 417.192Z" stroke="url(#paint2_linear)" stroke-width="30" stroke-linecap="round"/>
<path d="M117.262 325.841C112.989 355.614 110.771 386.122 110.771 417.192C110.771 743.146 354.878 1007.38 656 1007.38C957.122 1007.38 1201.23 743.146 1201.23 417.192C1201.23 359.641 1193.62 304.014 1179.43 251.425" stroke="#146587" stroke-width="30" stroke-linecap="round"/>
<path d="M174.302 417.705C174.302 708.797 389.965 944.773 656 944.773C922.035 944.773 1137.7 708.797 1137.7 417.705C1137.7 292.321 1097.69 177.163 1030.87 86.6845" stroke="#146587" stroke-width="30" stroke-linecap="round"/>
<path d="M198.764 251.425C182.894 303.697 174.302 359.603 174.302 417.705C174.302 708.797 389.965 944.773 656 944.773C922.035 944.773 1137.7 708.797 1137.7 417.705C1137.7 401.967 1137.07 386.39 1135.83 371.003" stroke="#52C6C5" stroke-width="30" stroke-linecap="round"/>
<path d="M198.764 251.425C182.894 303.697 174.302 359.603 174.302 417.705C174.302 708.797 389.965 944.773 656 944.773C922.035 944.773 1137.7 708.797 1137.7 417.705C1137.7 401.967 1137.07 386.39 1135.83 371.003" stroke="url(#paint3_linear)" stroke-width="30" stroke-linecap="round"/>
<ellipse cx="656" cy="418.219" rx="415.322" ry="449.572" stroke="#216D8D" stroke-width="30" stroke-linecap="round"/>
<path d="M1071.32 418.219C1071.32 666.511 885.376 867.791 656 867.791C426.624 867.791 240.678 666.511 240.678 418.219C240.678 323.724 267.61 236.039 313.619 163.666" stroke="#218D8C" stroke-width="30" stroke-linecap="round"/>
<path d="M1071.32 418.219C1071.32 666.511 885.376 867.791 656 867.791C426.624 867.791 240.678 666.511 240.678 418.219C240.678 323.724 267.61 236.039 313.619 163.666" stroke="url(#paint4_linear)" stroke-width="30" stroke-linecap="round"/>
<path d="M799.182 62.1558C926.395 121.894 1015.38 259.065 1015.38 418.732C1015.38 633.295 854.691 807.232 656.474 807.232C458.257 807.232 297.571 633.295 297.571 418.732C297.571 272.509 372.199 145.154 482.475 78.8603" stroke="#218D8C" stroke-width="28" stroke-linecap="round"/>
<path d="M1015.38 418.732C1015.38 633.295 854.691 807.232 656.474 807.232C458.257 807.232 297.571 633.295 297.571 418.732C297.571 408.891 297.909 399.136 298.573 389.479" stroke="#28357A" stroke-width="28" stroke-linecap="round"/>
<path d="M1015.38 418.732C1015.38 633.295 854.691 807.232 656.474 807.232C458.257 807.232 297.571 633.295 297.571 418.732C297.571 408.891 297.909 399.136 298.573 389.479" stroke="url(#paint5_linear)" stroke-width="28" stroke-linecap="round"/>
<path d="M605.27 104.749C467.102 130.767 362.05 261.213 362.05 418.219C362.05 593.95 493.656 736.409 656 736.409C818.344 736.409 949.95 593.95 949.95 418.219C949.95 329.986 916.773 250.142 863.187 192.504" stroke="#52C6C5" stroke-width="26" stroke-linecap="round"/>
<path d="M949.95 418.219C949.95 474.488 936.456 527.346 912.781 573.208C862.518 670.575 766.361 736.409 656 736.409C493.656 736.409 362.05 593.95 362.05 418.219C362.05 346.817 383.777 280.909 420.463 227.817" stroke="#01819D" stroke-width="26" stroke-linecap="round"/>
<path d="M534.153 183.808C458.59 229.929 407.565 317.624 407.565 418.219C407.565 566.74 518.793 687.141 656 687.141C793.207 687.141 904.435 566.74 904.435 418.219C904.435 340.994 874.364 271.372 826.206 222.325" stroke="#28357A" stroke-width="26" stroke-linecap="round"/>
<path d="M407.565 418.219C407.565 438.494 409.638 458.245 413.567 477.238C438.418 597.369 537.524 687.141 656 687.141C793.207 687.141 904.435 566.74 904.435 418.219C904.435 366.888 891.149 318.916 868.096 278.112" stroke="#146587" stroke-width="26" stroke-linecap="round"/>
<path d="M407.565 418.219C407.565 438.494 409.638 458.245 413.567 477.238C438.418 597.369 537.524 687.141 656 687.141C793.207 687.141 904.435 566.74 904.435 418.219C904.435 366.888 891.149 318.916 868.096 278.112" stroke="url(#paint6_linear)" stroke-width="26" stroke-linecap="round"/>
</g>
<defs>
<linearGradient id="paint0_linear" x1="656" y1="415.139" x2="656" y2="1109" gradientUnits="userSpaceOnUse">
<stop offset="0.109375" stop-color="#28357A"/>
<stop offset="0.8125" stop-color="#52C6C5"/>
</linearGradient>
<linearGradient id="paint1_linear" x1="656" y1="60.5108" x2="656" y2="1059.73" gradientUnits="userSpaceOnUse">
<stop stop-color="#01819D"/>
<stop offset="0.817708" stop-color="#0D668C" stop-opacity="0"/>
</linearGradient>
<linearGradient id="paint2_linear" x1="656" y1="-173" x2="656" y2="1007.38" gradientUnits="userSpaceOnUse">
<stop stop-color="#218D8C"/>
<stop offset="1" stop-color="#52C6C5"/>
</linearGradient>
<linearGradient id="paint3_linear" x1="656" y1="251.425" x2="656" y2="944.773" gradientUnits="userSpaceOnUse">
<stop stop-color="#52C6C5"/>
<stop offset="0.635417" stop-color="#216D8D"/>
</linearGradient>
<linearGradient id="paint4_linear" x1="656" y1="163.666" x2="656" y2="867.791" gradientUnits="userSpaceOnUse">
<stop stop-color="#218D8C"/>
<stop offset="0.932292" stop-color="#28357A"/>
</linearGradient>
<linearGradient id="paint5_linear" x1="656.474" y1="389.479" x2="656.474" y2="807.232" gradientUnits="userSpaceOnUse">
<stop stop-color="#28357A"/>
<stop offset="1" stop-color="#52C6C5"/>
</linearGradient>
<linearGradient id="paint6_linear" x1="656" y1="278.112" x2="656" y2="687.141" gradientUnits="userSpaceOnUse">
<stop stop-color="#146587"/>
<stop offset="1" stop-color="#1B2142"/>
</linearGradient>
</defs>
</svg>
